<svg width="30" height="32" viewBox="0 0 30 32" fill="none" xmlns="http://www.w3.org/2000/svg">
<path d="M23.4 12.2333L28.1 7.50001C28.3667 7.23334 28.6834 7.10001 29.05 7.10001C29.4167 7.10001 29.7334 7.23334 30 7.50001C30.2667 7.76668 30.4 8.08334 30.4 8.45001C30.4 8.81668 30.2667 9.13334 30 9.40001L24.3334 15.0667C24.0667 15.3333 23.7556 15.4667 23.4 15.4667C23.0445 15.4667 22.7334 15.3333 22.4667 15.0667L19.6334 12.2333C19.3667 11.9667 19.2334 11.65 19.2334 11.2833C19.2334 10.9167 19.3667 10.6 19.6334 10.3333C19.9 10.0667 20.2112 9.93334 20.5667 9.93334C20.9223 9.93334 21.2334 10.0667 21.5 10.3333L23.4 12.2333ZM12 16C10.5334 16 9.27782 15.4778 8.23338 14.4333C7.18893 13.3889 6.66671 12.1333 6.66671 10.6667C6.66671 9.20001 7.18893 7.94445 8.23338 6.90001C9.27782 5.85557 10.5334 5.33334 12 5.33334C13.4667 5.33334 14.7223 5.85557 15.7667 6.90001C16.8112 7.94445 17.3334 9.20001 17.3334 10.6667C17.3334 12.1333 16.8112 13.3889 15.7667 14.4333C14.7223 15.4778 13.4667 16 12 16ZM1.33337 24V22.9333C1.33337 22.1778 1.52782 21.4833 1.91671 20.85C2.3056 20.2167 2.82226 19.7333 3.46671 19.4C4.84449 18.7111 6.24449 18.1945 7.66671 17.85C9.08893 17.5056 10.5334 17.3333 12 17.3333C13.4667 17.3333 14.9112 17.5056 16.3334 17.85C17.7556 18.1945 19.1556 18.7111 20.5334 19.4C21.1778 19.7333 21.6945 20.2167 22.0834 20.85C22.4723 21.4833 22.6667 22.1778 22.6667 22.9333V24C22.6667 24.7333 22.4056 25.3611 21.8834 25.8833C21.3612 26.4056 20.7334 26.6667 20 26.6667H4.00004C3.26671 26.6667 2.63893 26.4056 2.11671 25.8833C1.59449 25.3611 1.33337 24.7333 1.33337 24Z" fill="black"/>
</svg>
