<svg width="21" height="16" viewBox="0 0 21 16" fill="none" xmlns="http://www.w3.org/2000/svg">
<path d="M9.37345 12.5727L17.779 4.16719C18.0401 3.90599 18.3726 3.77539 18.7762 3.77539C19.1799 3.77539 19.5123 3.90599 19.7735 4.16719C20.0347 4.42839 20.1653 4.76079 20.1653 5.16439C20.1653 5.56809 20.0347 5.90049 19.7735 6.16169L10.3707 15.5645C10.0858 15.8494 9.75336 15.9919 9.37345 15.9919C8.99354 15.9919 8.66111 15.8494 8.37618 15.5645L4.67206 11.8604C4.41087 11.5992 4.28027 11.2667 4.28027 10.8631C4.28027 10.4594 4.41087 10.127 4.67206 9.86579C4.93324 9.60459 5.26567 9.47399 5.66932 9.47399C6.07297 9.47399 6.4054 9.60459 6.66659 9.86579L9.37345 12.5727Z" fill="#333333"/>
<path d="M0.875 5.2217L2.31055 3.3418L0.191406 2.72656L0.553711 1.60547L2.65918 2.41211L2.56348 0.0400391H3.75293L3.64355 2.45996L5.71484 1.65332L6.07715 2.79492L3.91699 3.417L5.31836 5.2559L4.35449 5.9531L3.08984 3.9707L1.8457 5.8984L0.875 5.2217Z" fill="#1AE273"/>
</svg>
