<svg width="20" height="19" viewBox="0 0 20 19" fill="none" xmlns="http://www.w3.org/2000/svg">
<path d="M12.4427 16.5807L5.41985 9.56726C5.26717 9.4148 5.15929 9.24963 5.09618 9.07175C5.03206 8.89387 5 8.70329 5 8.5C5 8.29671 5.03206 8.10613 5.09618 7.92825C5.15929 7.75037 5.26717 7.5852 5.41985 7.43273L12.4427 0.419282C12.7226 0.13976 13.0789 0 13.5115 0C13.944 0 14.3003 0.13976 14.5802 0.419282C14.8601 0.698804 15 1.05456 15 1.48655C15 1.91853 14.8601 2.27429 14.5802 2.55381L8.62595 8.5L14.5802 14.4462C14.8601 14.7257 15 15.0815 15 15.5135C15 15.9454 14.8601 16.3012 14.5802 16.5807C14.3003 16.8602 13.944 17 13.5115 17C13.0789 17 12.7226 16.8602 12.4427 16.5807Z" fill="#333333"/>
</svg>
