<svg width="23" height="14" viewBox="0 0 23 14" fill="none" xmlns="http://www.w3.org/2000/svg">
<path d="M6.01022 13.3113C4.45979 13.3113 3.13837 12.7096 2.04597 11.5063C0.952824 10.3038 0.40625 8.84917 0.40625 7.14246C0.40625 5.43575 0.952824 3.98073 2.04597 2.7774C3.13837 1.57489 4.45979 0.973633 6.01022 0.973633H9.3726C9.69015 0.973633 9.95653 1.09166 10.1717 1.32772C10.3862 1.56461 10.4934 1.85783 10.4934 2.2074C10.4934 2.55697 10.3862 2.84978 10.1717 3.08584C9.95653 3.32272 9.69015 3.44117 9.3726 3.44117H6.01022C5.07622 3.44117 4.28233 3.80101 3.62853 4.52071C2.97473 5.24041 2.64784 6.11433 2.64784 7.14246C2.64784 8.1706 2.97473 9.04452 3.62853 9.76422C4.28233 10.4839 5.07622 10.8438 6.01022 10.8438H9.3726C9.69015 10.8438 9.95653 10.9618 10.1717 11.1979C10.3862 11.4347 10.4934 11.728 10.4934 12.0775C10.4934 12.4271 10.3862 12.7199 10.1717 12.956C9.95653 13.1929 9.69015 13.3113 9.3726 13.3113H6.01022ZM8.2518 8.37623C7.93424 8.37623 7.66824 8.25779 7.4538 8.02091C7.23861 7.78485 7.13101 7.49203 7.13101 7.14246C7.13101 6.7929 7.23861 6.49967 7.4538 6.26279C7.66824 6.02673 7.93424 5.9087 8.2518 5.9087H14.9766C15.2941 5.9087 15.5605 6.02673 15.7757 6.26279C15.9901 6.49967 16.0974 6.7929 16.0974 7.14246C16.0974 7.49203 15.9901 7.78485 15.7757 8.02091C15.5605 8.25779 15.2941 8.37623 14.9766 8.37623H8.2518ZM13.8558 13.3113C13.5382 13.3113 13.2722 13.1929 13.0578 12.956C12.8426 12.7199 12.735 12.4271 12.735 12.0775C12.735 11.728 12.8426 11.4347 13.0578 11.1979C13.2722 10.9618 13.5382 10.8438 13.8558 10.8438H17.2181C18.1521 10.8438 18.946 10.4839 19.5998 9.76422C20.2536 9.04452 20.5805 8.1706 20.5805 7.14246C20.5805 6.11433 20.2536 5.24041 19.5998 4.52071C18.946 3.80101 18.1521 3.44117 17.2181 3.44117H13.8558C13.5382 3.44117 13.2722 3.32272 13.0578 3.08584C12.8426 2.84978 12.735 2.55697 12.735 2.2074C12.735 1.85783 12.8426 1.56461 13.0578 1.32772C13.2722 1.09166 13.5382 0.973633 13.8558 0.973633H17.2181C18.7686 0.973633 20.0904 1.57489 21.1835 2.7774C22.2759 3.98073 22.8221 5.43575 22.8221 7.14246C22.8221 8.84917 22.2759 10.3038 21.1835 11.5063C20.0904 12.7096 18.7686 13.3113 17.2181 13.3113H13.8558Z" fill="#333333"/>
</svg>
