<svg width="14" height="13" viewBox="0 0 14 13" fill="none" xmlns="http://www.w3.org/2000/svg">
<path d="M7.03654 7.97824L2.40246 12.6123C2.22907 12.7857 2.0084 12.8724 1.74045 12.8724C1.47249 12.8724 1.25182 12.7857 1.07844 12.6123C0.905051 12.4389 0.818359 12.2183 0.818359 11.9503C0.818359 11.6824 0.905051 11.4617 1.07844 11.2883L5.71252 6.65422L1.07844 2.02013C0.905051 1.84675 0.818359 1.62608 0.818359 1.35812C0.818359 1.09017 0.905051 0.869495 1.07844 0.696111C1.25182 0.522727 1.47249 0.436035 1.74045 0.436035C2.0084 0.436035 2.22907 0.522727 2.40246 0.696111L7.03654 5.33019L11.6706 0.696111C11.844 0.522727 12.0647 0.436035 12.3326 0.436035C12.6006 0.436035 12.8213 0.522727 12.9946 0.696111C13.168 0.869495 13.2547 1.09017 13.2547 1.35812C13.2547 1.62608 13.168 1.84675 12.9946 2.02013L8.36056 6.65422L12.9946 11.2883C13.168 11.4617 13.2547 11.6824 13.2547 11.9503C13.2547 12.2183 13.168 12.4389 12.9946 12.6123C12.8213 12.7857 12.6006 12.8724 12.3326 12.8724C12.0647 12.8724 11.844 12.7857 11.6706 12.6123L7.03654 7.97824Z" fill="#606060"/>
</svg>
