<svg width="31" height="30" viewBox="0 0 31 30" fill="none" xmlns="http://www.w3.org/2000/svg">
<path d="M24.2455 26.2091V18.8454M20.5637 22.5273H27.9273M15.6546 18.8454H10.7455C8.45812 18.8454 7.31445 18.8454 6.4123 19.2191C5.20943 19.7174 4.25376 20.673 3.75552 21.8759C3.38184 22.778 3.38184 23.9217 3.38184 26.2091M19.95 4.475C21.7491 5.20325 23.0182 6.96705 23.0182 9.02725C23.0182 11.0875 21.7491 12.8513 19.95 13.5795M17.4955 9.02725C17.4955 11.7385 15.2976 13.9363 12.5864 13.9363C9.87517 13.9363 7.67729 11.7385 7.67729 9.02725C7.67729 6.31604 9.87517 4.11816 12.5864 4.11816C15.2976 4.11816 17.4955 6.31604 17.4955 9.02725Z" stroke="#414651" stroke-width="1.30909" stroke-linecap="round" stroke-linejoin="round"/>
</svg>
