<svg width="13" height="13" viewBox="0 0 13 13" fill="none" xmlns="http://www.w3.org/2000/svg">
<path d="M12.517 6.49241C12.517 9.74018 9.88422 12.373 6.63645 12.373C3.38868 12.373 0.755859 9.74018 0.755859 6.49241C0.755859 3.24464 3.38868 0.611816 6.63645 0.611816C9.88422 0.611816 12.517 3.24464 12.517 6.49241ZM5.95625 9.60613L10.3193 5.24311C10.4674 5.09496 10.4674 4.85473 10.3193 4.70658L9.78273 4.17005C9.63458 4.02187 9.39435 4.02187 9.24618 4.17005L5.68797 7.72823L4.02672 6.06699C3.87857 5.91884 3.63834 5.91884 3.49017 6.06699L2.95364 6.60352C2.80548 6.75168 2.80548 6.9919 2.95364 7.14005L5.41969 9.60611C5.56787 9.75429 5.80807 9.75429 5.95625 9.60613V9.60613Z" fill="black"/>
</svg>
