<svg width="60" height="61" viewBox="0 0 60 61" fill="none" xmlns="http://www.w3.org/2000/svg">
<path d="M42.625 46.875V35.625M37 41.25H48.25M29.5 35.625H22C18.5054 35.625 16.7582 35.625 15.3799 36.1959C13.5422 36.9571 12.0821 38.4172 11.3209 40.2549C10.75 41.6332 10.75 43.3804 10.75 46.875M36.0625 13.6702C38.8111 14.7828 40.75 17.4775 40.75 20.625C40.75 23.7725 38.8111 26.4672 36.0625 27.5798M32.3125 20.625C32.3125 24.7671 28.9546 28.125 24.8125 28.125C20.6704 28.125 17.3125 24.7671 17.3125 20.625C17.3125 16.4829 20.6704 13.125 24.8125 13.125C28.9546 13.125 32.3125 16.4829 32.3125 20.625Z" stroke="#414651" stroke-width="2" stroke-linecap="round" stroke-linejoin="round"/>
</svg>
