<svg width="31" height="32" viewBox="0 0 31 32" fill="none" xmlns="http://www.w3.org/2000/svg">
<path d="M23.3997 12.2334L28.0997 7.50004C28.3663 7.23337 28.683 7.10004 29.0497 7.10004C29.4163 7.10004 29.733 7.23337 29.9997 7.50004C30.2663 7.76671 30.3997 8.08337 30.3997 8.45004C30.3997 8.81671 30.2663 9.13337 29.9997 9.40004L24.333 15.0667C24.0663 15.3334 23.7552 15.4667 23.3997 15.4667C23.0441 15.4667 22.733 15.3334 22.4663 15.0667L19.633 12.2334C19.3663 11.9667 19.233 11.65 19.233 11.2834C19.233 10.9167 19.3663 10.6 19.633 10.3334C19.8997 10.0667 20.2108 9.93337 20.5663 9.93337C20.9219 9.93337 21.233 10.0667 21.4997 10.3334L23.3997 12.2334ZM11.9997 16C10.533 16 9.27745 15.4778 8.23301 14.4334C7.18856 13.3889 6.66634 12.1334 6.66634 10.6667C6.66634 9.20004 7.18856 7.94449 8.23301 6.90004C9.27745 5.8556 10.533 5.33337 11.9997 5.33337C13.4663 5.33337 14.7219 5.8556 15.7663 6.90004C16.8108 7.94449 17.333 9.20004 17.333 10.6667C17.333 12.1334 16.8108 13.3889 15.7663 14.4334C14.7219 15.4778 13.4663 16 11.9997 16ZM1.33301 24V22.9334C1.33301 22.1778 1.52745 21.4834 1.91634 20.85C2.30523 20.2167 2.8219 19.7334 3.46634 19.4C4.84412 18.7112 6.24412 18.1945 7.66634 17.85C9.08856 17.5056 10.533 17.3334 11.9997 17.3334C13.4663 17.3334 14.9108 17.5056 16.333 17.85C17.7552 18.1945 19.1552 18.7112 20.533 19.4C21.1775 19.7334 21.6941 20.2167 22.083 20.85C22.4719 21.4834 22.6663 22.1778 22.6663 22.9334V24C22.6663 24.7334 22.4052 25.3612 21.883 25.8834C21.3608 26.4056 20.733 26.6667 19.9997 26.6667H3.99967C3.26634 26.6667 2.63856 26.4056 2.11634 25.8834C1.59412 25.3612 1.33301 24.7334 1.33301 24Z" fill="black"/>
<path fill-rule="evenodd" clip-rule="evenodd" d="M23.3997 12.2335L28.0997 7.50016C28.3663 7.2335 28.683 7.10016 29.0497 7.10016C29.4163 7.10016 29.733 7.2335 29.9997 7.50016C30.2663 7.76683 30.3997 8.0835 30.3997 8.45016C30.3997 8.81683 30.2663 9.1335 29.9997 9.40016L24.333 15.0668C24.0663 15.3335 23.7552 15.4668 23.3997 15.4668C23.0441 15.4668 22.733 15.3335 22.4663 15.0668L19.633 12.2335C19.3663 11.9668 19.233 11.6502 19.233 11.2835C19.233 10.9168 19.3663 10.6002 19.633 10.3335C19.8997 10.0668 20.2108 9.9335 20.5663 9.9335C20.9219 9.9335 21.233 10.0668 21.4997 10.3335L23.3997 12.2335Z" fill="current"/>
</svg>
