<svg width="30" height="22" viewBox="0 0 30 22" fill="none" xmlns="http://www.w3.org/2000/svg">
<path d="M22.3997 7.23333L27.0997 2.5C27.3663 2.23333 27.683 2.1 28.0497 2.1C28.4163 2.1 28.733 2.23333 28.9997 2.5C29.2663 2.76667 29.3997 3.08333 29.3997 3.45C29.3997 3.81667 29.2663 4.13333 28.9997 4.4L23.333 10.0667C23.0663 10.3333 22.7552 10.4667 22.3997 10.4667C22.0441 10.4667 21.733 10.3333 21.4663 10.0667L18.633 7.23333C18.3663 6.96667 18.233 6.65 18.233 6.28333C18.233 5.91667 18.3663 5.6 18.633 5.33333C18.8997 5.06667 19.2108 4.93333 19.5663 4.93333C19.9219 4.93333 20.233 5.06667 20.4997 5.33333L22.3997 7.23333ZM10.9997 11C9.53301 11 8.27745 10.4778 7.23301 9.43333C6.18856 8.38889 5.66634 7.13333 5.66634 5.66667C5.66634 4.2 6.18856 2.94444 7.23301 1.9C8.27745 0.855554 9.53301 0.333332 10.9997 0.333332C12.4663 0.333332 13.7219 0.855554 14.7663 1.9C15.8108 2.94444 16.333 4.2 16.333 5.66667C16.333 7.13333 15.8108 8.38889 14.7663 9.43333C13.7219 10.4778 12.4663 11 10.9997 11ZM0.333008 19V17.9333C0.333008 17.1778 0.527452 16.4833 0.916341 15.85C1.30523 15.2167 1.8219 14.7333 2.46634 14.4C3.84412 13.7111 5.24412 13.1944 6.66634 12.85C8.08856 12.5056 9.53301 12.3333 10.9997 12.3333C12.4663 12.3333 13.9108 12.5056 15.333 12.85C16.7552 13.1944 18.1552 13.7111 19.533 14.4C20.1775 14.7333 20.6941 15.2167 21.083 15.85C21.4719 16.4833 21.6663 17.1778 21.6663 17.9333V19C21.6663 19.7333 21.4052 20.3611 20.883 20.8833C20.3608 21.4056 19.733 21.6667 18.9997 21.6667H2.99967C2.26634 21.6667 1.63856 21.4056 1.11634 20.8833C0.594119 20.3611 0.333008 19.7333 0.333008 19Z" fill="black"/>
</svg>
