<svg width="21" height="24" viewBox="0 0 21 24" fill="none" xmlns="http://www.w3.org/2000/svg">
<path d="M9.37345 19.5727L17.779 11.1672C18.0401 10.906 18.3726 10.7754 18.7762 10.7754C19.1799 10.7754 19.5123 10.906 19.7735 11.1672C20.0347 11.4284 20.1653 11.7608 20.1653 12.1644C20.1653 12.5681 20.0347 12.9005 19.7735 13.1617L10.3707 22.5645C10.0858 22.8494 9.75336 22.9919 9.37345 22.9919C8.99354 22.9919 8.66111 22.8494 8.37618 22.5645L4.67206 18.8604C4.41087 18.5992 4.28027 18.2667 4.28027 17.8631C4.28027 17.4594 4.41087 17.127 4.67206 16.8658C4.93324 16.6046 5.26567 16.474 5.66932 16.474C6.07297 16.474 6.4054 16.6046 6.66659 16.8658L9.37345 19.5727Z" fill="#333333"/>
<path d="M0.875 12.2217L2.31055 10.3418L0.191406 9.72656L0.553711 8.60547L2.65918 9.41211L2.56348 7.04004H3.75293L3.64355 9.45996L5.71484 8.65332L6.07715 9.79492L3.91699 10.417L5.31836 12.2559L4.35449 12.9531L3.08984 10.9707L1.8457 12.8984L0.875 12.2217Z" fill="#1AE273"/>
</svg>
