<svg width="50" height="50" viewBox="0 0 50 50" fill="none" xmlns="http://www.w3.org/2000/svg">
<g clip-path="url(#clip0_2107_5569)">
<path d="M32.6497 17.6334L21.6663 28.6167L15.683 22.65L13.333 25L21.6663 33.3334L34.9997 20L32.6497 17.6334ZM24.9997 8.33337C15.7997 8.33337 8.33301 15.8 8.33301 25C8.33301 34.2 15.7997 41.6667 24.9997 41.6667C34.1997 41.6667 41.6663 34.2 41.6663 25C41.6663 15.8 34.1997 8.33337 24.9997 8.33337ZM24.9997 38.3334C17.633 38.3334 11.6663 32.3667 11.6663 25C11.6663 17.6334 17.633 11.6667 24.9997 11.6667C32.3663 11.6667 38.333 17.6334 38.333 25C38.333 32.3667 32.3663 38.3334 24.9997 38.3334Z" fill="white"/>
</g>
<defs>
<clipPath id="clip0_2107_5569">
<rect width="50" height="50" fill="white"/>
</clipPath>
</defs>
</svg>
