<svg width="40" height="40" viewBox="0 0 40 40" fill="none" xmlns="http://www.w3.org/2000/svg">
<g clip-path="url(#clip0_2107_5583)">
<path fill-rule="evenodd" clip-rule="evenodd" d="M27.7832 21.8833C30.0665 23.4333 31.6665 25.5333 31.6665 28.3333V33.3333H38.3332V28.3333C38.3332 24.7 32.3832 22.55 27.7832 21.8833Z" fill="white"/>
<path d="M15.0007 20C18.6825 20 21.6673 17.0152 21.6673 13.3333C21.6673 9.65139 18.6825 6.66663 15.0007 6.66663C11.3188 6.66663 8.33398 9.65139 8.33398 13.3333C8.33398 17.0152 11.3188 20 15.0007 20Z" fill="white"/>
<path fill-rule="evenodd" clip-rule="evenodd" d="M24.9999 20C28.6832 20 31.6665 17.0166 31.6665 13.3333C31.6665 9.64996 28.6832 6.66663 24.9999 6.66663C24.2165 6.66663 23.4832 6.83329 22.7832 7.06663C24.1665 8.78329 24.9999 10.9666 24.9999 13.3333C24.9999 15.7 24.1665 17.8833 22.7832 19.6C23.4832 19.8333 24.2165 20 24.9999 20Z" fill="white"/>
<path fill-rule="evenodd" clip-rule="evenodd" d="M15.0003 21.6666C10.5503 21.6666 1.66699 23.9 1.66699 28.3333V33.3333H28.3337V28.3333C28.3337 23.9 19.4503 21.6666 15.0003 21.6666Z" fill="white"/>
</g>
<defs>
<clipPath id="clip0_2107_5583">
<rect width="40" height="40" fill="white"/>
</clipPath>
</defs>
</svg>
