<svg width="503" height="201" viewBox="0 0 503 201" fill="none" xmlns="http://www.w3.org/2000/svg">
<path d="M8.09091 94V0.909088H45.3636C52.2121 0.909088 57.9242 1.92424 62.5 3.95454C67.0758 5.98485 70.5152 8.80303 72.8182 12.4091C75.1212 15.9848 76.2727 20.1061 76.2727 24.7727C76.2727 28.4091 75.5455 31.6061 74.0909 34.3636C72.6364 37.0909 70.6364 39.3333 68.0909 41.0909C65.5758 42.8182 62.697 44.0455 59.4545 44.7727V45.6818C63 45.8333 66.3182 46.8333 69.4091 48.6818C72.5303 50.5303 75.0606 53.1212 77 56.4545C78.9394 59.7576 79.9091 63.697 79.9091 68.2727C79.9091 73.2121 78.6818 77.6212 76.2273 81.5C73.803 85.3485 70.2121 88.3939 65.4545 90.6364C60.697 92.8788 54.8333 94 47.8636 94H8.09091ZM27.7727 77.9091H43.8182C49.303 77.9091 53.303 76.8636 55.8182 74.7727C58.3333 72.6515 59.5909 69.8333 59.5909 66.3182C59.5909 63.7424 58.9697 61.4697 57.7273 59.5C56.4849 57.5303 54.7121 55.9848 52.4091 54.8636C50.1364 53.7424 47.4242 53.1818 44.2727 53.1818H27.7727V77.9091ZM27.7727 39.8636H42.3636C45.0606 39.8636 47.4545 39.3939 49.5455 38.4545C51.6667 37.4848 53.3333 36.1212 54.5455 34.3636C55.7879 32.6061 56.4091 30.5 56.4091 28.0455C56.4091 24.6818 55.2121 21.9697 52.8182 19.9091C50.4545 17.8485 47.0909 16.8182 42.7273 16.8182H27.7727V39.8636ZM137.125 64.2727V24.1818H156.489V94H137.898V81.3182H137.17C135.595 85.4091 132.973 88.697 129.307 91.1818C125.67 93.6667 121.231 94.9091 115.989 94.9091C111.322 94.9091 107.216 93.8485 103.67 91.7273C100.125 89.6061 97.3523 86.5909 95.3523 82.6818C93.3826 78.7727 92.3826 74.0909 92.3523 68.6364V24.1818H111.716V65.1818C111.746 69.303 112.852 72.5606 115.034 74.9545C117.216 77.3485 120.14 78.5455 123.807 78.5455C126.14 78.5455 128.322 78.0152 130.352 76.9545C132.383 75.8636 134.019 74.2576 135.261 72.1364C136.534 70.0152 137.155 67.3939 137.125 64.2727ZM203.432 121.636C197.159 121.636 191.78 120.773 187.295 119.045C182.841 117.348 179.295 115.03 176.659 112.091C174.023 109.152 172.311 105.848 171.523 102.182L189.432 99.7727C189.977 101.167 190.841 102.47 192.023 103.682C193.205 104.894 194.765 105.864 196.705 106.591C198.674 107.348 201.068 107.727 203.886 107.727C208.098 107.727 211.568 106.697 214.295 104.636C217.053 102.606 218.432 99.197 218.432 94.4091V81.6364H217.614C216.765 83.5758 215.492 85.4091 213.795 87.1364C212.098 88.8636 209.917 90.2727 207.25 91.3636C204.583 92.4545 201.402 93 197.705 93C192.462 93 187.689 91.7879 183.386 89.3636C179.114 86.9091 175.705 83.1667 173.159 78.1364C170.644 73.0758 169.386 66.6818 169.386 58.9545C169.386 51.0455 170.674 44.4394 173.25 39.1364C175.826 33.8333 179.25 29.8636 183.523 27.2273C187.826 24.5909 192.538 23.2727 197.659 23.2727C201.568 23.2727 204.841 23.9394 207.477 25.2727C210.114 26.5758 212.235 28.2121 213.841 30.1818C215.477 32.1212 216.735 34.0303 217.614 35.9091H218.341V24.1818H237.568V94.6818C237.568 100.621 236.114 105.591 233.205 109.591C230.295 113.591 226.265 116.591 221.114 118.591C215.992 120.621 210.098 121.636 203.432 121.636ZM203.841 78.4545C206.962 78.4545 209.598 77.6818 211.75 76.1364C213.932 74.5606 215.598 72.3182 216.75 69.4091C217.932 66.4697 218.523 62.9545 218.523 58.8636C218.523 54.7727 217.947 51.2273 216.795 48.2273C215.644 45.197 213.977 42.8485 211.795 41.1818C209.614 39.5151 206.962 38.6818 203.841 38.6818C200.659 38.6818 197.977 39.5455 195.795 41.2727C193.614 42.9697 191.962 45.3333 190.841 48.3636C189.72 51.3939 189.159 54.8939 189.159 58.8636C189.159 62.8939 189.72 66.3788 190.841 69.3182C191.992 72.2273 193.644 74.4848 195.795 76.0909C197.977 77.6667 200.659 78.4545 203.841 78.4545Z" fill="white"/>
<path d="M215.091 199.6V187.918L261.545 122.736H215V106.509H286.273V118.191L239.773 183.373H286.364V199.6H215.091ZM332.92 200.964C325.739 200.964 319.557 199.509 314.375 196.6C309.223 193.661 305.254 189.509 302.466 184.145C299.678 178.751 298.284 172.373 298.284 165.009C298.284 157.827 299.678 151.524 302.466 146.1C305.254 140.676 309.178 136.448 314.239 133.418C319.33 130.388 325.299 128.873 332.148 128.873C336.754 128.873 341.042 129.615 345.011 131.1C349.011 132.555 352.496 134.751 355.466 137.691C358.466 140.63 360.799 144.327 362.466 148.782C364.133 153.206 364.966 158.388 364.966 164.327V169.645H306.011V157.645H346.739C346.739 154.858 346.133 152.388 344.92 150.236C343.708 148.085 342.027 146.403 339.875 145.191C337.754 143.948 335.284 143.327 332.466 143.327C329.527 143.327 326.92 144.009 324.648 145.373C322.405 146.706 320.648 148.509 319.375 150.782C318.102 153.024 317.451 155.524 317.42 158.282V169.691C317.42 173.145 318.057 176.13 319.33 178.645C320.633 181.161 322.466 183.1 324.83 184.464C327.193 185.827 329.996 186.509 333.239 186.509C335.39 186.509 337.36 186.206 339.148 185.6C340.936 184.994 342.466 184.085 343.739 182.873C345.011 181.661 345.981 180.176 346.648 178.418L364.557 179.6C363.648 183.903 361.784 187.661 358.966 190.873C356.178 194.055 352.572 196.539 348.148 198.327C343.754 200.085 338.678 200.964 332.92 200.964ZM377.602 199.6V129.782H396.375V141.964H397.102C398.375 137.63 400.511 134.358 403.511 132.145C406.511 129.903 409.966 128.782 413.875 128.782C414.845 128.782 415.89 128.842 417.011 128.964C418.133 129.085 419.117 129.251 419.966 129.464V146.645C419.057 146.373 417.799 146.13 416.193 145.918C414.587 145.706 413.117 145.6 411.784 145.6C408.936 145.6 406.39 146.221 404.148 147.464C401.936 148.676 400.178 150.373 398.875 152.555C397.602 154.736 396.966 157.251 396.966 160.1V199.6H377.602ZM458.273 200.964C451.212 200.964 445.106 199.464 439.955 196.464C434.833 193.433 430.879 189.221 428.091 183.827C425.303 178.403 423.909 172.115 423.909 164.964C423.909 157.751 425.303 151.448 428.091 146.055C430.879 140.63 434.833 136.418 439.955 133.418C445.106 130.388 451.212 128.873 458.273 128.873C465.333 128.873 471.424 130.388 476.545 133.418C481.697 136.418 485.667 140.63 488.455 146.055C491.242 151.448 492.636 157.751 492.636 164.964C492.636 172.115 491.242 178.403 488.455 183.827C485.667 189.221 481.697 193.433 476.545 196.464C471.424 199.464 465.333 200.964 458.273 200.964ZM458.364 185.964C461.576 185.964 464.258 185.055 466.409 183.236C468.561 181.388 470.182 178.873 471.273 175.691C472.394 172.509 472.955 168.888 472.955 164.827C472.955 160.767 472.394 157.145 471.273 153.964C470.182 150.782 468.561 148.267 466.409 146.418C464.258 144.57 461.576 143.645 458.364 143.645C455.121 143.645 452.394 144.57 450.182 146.418C448 148.267 446.348 150.782 445.227 153.964C444.136 157.145 443.591 160.767 443.591 164.827C443.591 168.888 444.136 172.509 445.227 175.691C446.348 178.873 448 181.388 450.182 183.236C452.394 185.055 455.121 185.964 458.364 185.964Z" fill="#333333"/>
</svg>
