<svg width="30" height="32" viewBox="0 0 30 32" fill="none" xmlns="http://www.w3.org/2000/svg">
<path d="M23.4007 12.2334L28.1007 7.50004C28.3673 7.23337 28.684 7.10004 29.0507 7.10004C29.4173 7.10004 29.734 7.23337 30.0007 7.50004C30.2673 7.76671 30.4007 8.08337 30.4007 8.45004C30.4007 8.81671 30.2673 9.13337 30.0007 9.40004L24.334 15.0667C24.0673 15.3334 23.7562 15.4667 23.4007 15.4667C23.0451 15.4667 22.734 15.3334 22.4673 15.0667L19.634 12.2334C19.3673 11.9667 19.234 11.65 19.234 11.2834C19.234 10.9167 19.3673 10.6 19.634 10.3334C19.9007 10.0667 20.2118 9.93337 20.5673 9.93337C20.9229 9.93337 21.234 10.0667 21.5007 10.3334L23.4007 12.2334ZM12.0007 16C10.534 16 9.27843 15.4778 8.23399 14.4334C7.18954 13.3889 6.66732 12.1334 6.66732 10.6667C6.66732 9.20004 7.18954 7.94449 8.23399 6.90004C9.27843 5.8556 10.534 5.33337 12.0007 5.33337C13.4673 5.33337 14.7229 5.8556 15.7673 6.90004C16.8118 7.94449 17.334 9.20004 17.334 10.6667C17.334 12.1334 16.8118 13.3889 15.7673 14.4334C14.7229 15.4778 13.4673 16 12.0007 16ZM1.33398 24V22.9334C1.33398 22.1778 1.52843 21.4834 1.91732 20.85C2.30621 20.2167 2.82287 19.7334 3.46732 19.4C4.8451 18.7112 6.2451 18.1945 7.66732 17.85C9.08954 17.5056 10.534 17.3334 12.0007 17.3334C13.4673 17.3334 14.9118 17.5056 16.334 17.85C17.7562 18.1945 19.1562 18.7112 20.534 19.4C21.1784 19.7334 21.6951 20.2167 22.084 20.85C22.4729 21.4834 22.6673 22.1778 22.6673 22.9334V24C22.6673 24.7334 22.4062 25.3612 21.884 25.8834C21.3618 26.4056 20.734 26.6667 20.0007 26.6667H4.00065C3.26732 26.6667 2.63954 26.4056 2.11732 25.8834C1.5951 25.3612 1.33398 24.7334 1.33398 24Z" fill="black"/>
<path fill-rule="evenodd" clip-rule="evenodd" d="M23.4007 12.2335L28.1007 7.50016C28.3673 7.2335 28.684 7.10016 29.0507 7.10016C29.4173 7.10016 29.734 7.2335 30.0007 7.50016C30.2673 7.76683 30.4007 8.0835 30.4007 8.45016C30.4007 8.81683 30.2673 9.1335 30.0007 9.40016L24.334 15.0668C24.0673 15.3335 23.7562 15.4668 23.4007 15.4668C23.0451 15.4668 22.734 15.3335 22.4673 15.0668L19.634 12.2335C19.3673 11.9668 19.234 11.6502 19.234 11.2835C19.234 10.9168 19.3673 10.6002 19.634 10.3335C19.9007 10.0668 20.2118 9.9335 20.5673 9.9335C20.9229 9.9335 21.234 10.0668 21.5007 10.3335L23.4007 12.2335Z" fill="#1AE273"/>
</svg>
