<svg width="24" height="24" viewBox="0 0 24 24" fill="none" xmlns="http://www.w3.org/2000/svg">
<g clip-path="url(#clip0_2546_1671)">
<path d="M21.7988 12.1112C21.7988 17.4615 17.4616 21.7987 12.1113 21.7987C6.76105 21.7987 2.42383 17.4615 2.42383 12.1112C2.42383 6.76093 6.76105 2.42371 12.1113 2.42371C17.4616 2.42371 21.7988 6.76093 21.7988 12.1112ZM10.9908 17.2407L18.1783 10.0532C18.4223 9.8091 18.4223 9.41335 18.1783 9.16929L17.2944 8.28543C17.0504 8.04132 16.6546 8.04132 16.4105 8.28543L10.5488 14.1471L7.81215 11.4104C7.56809 11.1663 7.17234 11.1663 6.92824 11.4104L6.04437 12.2943C5.80031 12.5383 5.80031 12.9341 6.04437 13.1781L10.1069 17.2406C10.351 17.4847 10.7467 17.4847 10.9908 17.2407Z" fill="black"/>
</g>
<defs>
<clipPath id="clip0_2546_1671">
<rect width="20" height="20" fill="white" transform="translate(2.11133 2.11115)"/>
</clipPath>
</defs>
</svg>
